HIERARCHY
ROOT Hips
{
  OFFSET -37.7579 96.335 76.485
  CHANNELS 6 Xposition Yposition Zposition Zrotation Xrotation Yrotation
  JOINT RightUpLeg
  {
    OFFSET -8.9458 -8.66707 0.101652
    CHANNELS 3 Zrotation Xrotation Yrotation
    JOINT RightLeg
    {
      OFFSET 0 -44.4227 1.3727
      CHANNELS 3 Zrotation Xrotation Yrotation
      JOINT RightFoot
      {
        OFFSET 0.253549 -42.0924 -1.46059
        CHANNELS 3 Zrotation Xrotation Yrotation
        JOINT RightToes
        {
          OFFSET 0.04 -4.41509 8.4991
          CHANNELS 3 Zrotation Xrotation Yrotation
          End Site
          {
            OFFSET -0.08 -0.137448 9.77979
          }
        }
      }
    }
  }
  JOINT Spine
  {
    OFFSET 0 11.8905 0
    CHANNELS 3 Zrotation Xrotation Yrotation
    JOINT Spine1
    {
      OFFSET 0 25.6574 0.127663
      CHANNELS 3 Zrotation Xrotation Yrotation
      JOINT HEad
      {
        OFFSET 0 8.73416 0.011341
        CHANNELS 3 Zrotation Xrotation Yrotation
        End Site
        {
          OFFSET -0.29 12.7742 2.51395
        }
      }
      JOINT LeftShoulder1
      {
        OFFSET 8.99 -0.362252 -0.22
        CHANNELS 3 Zrotation Xrotation Yrotation
        JOINT LeftArm
        {
          OFFSET 10.2827 -0.00338 0.322123
          CHANNELS 3 Zrotation Xrotation Yrotation
          JOINT LeftForeArm
          {
            OFFSET 32.7669 0.099144 -1.42434
            CHANNELS 3 Zrotation Xrotation Yrotation
            JOINT LeftHand
            {
              OFFSET 27.5643 0.085362 1.02216
              CHANNELS 3 Zrotation Xrotation Yrotation
              End Site
              {
                OFFSET 16.7443 -0.6 1.50291
              }
            }
          }
        }
      }
      JOINT RightShoulder
      {
        OFFSET -8.99 -0.362252 -0.22
        CHANNELS 3 Zrotation Xrotation Yrotation
        JOINT RightArm
        {
          OFFSET -10.2827 -0.00338 0.322123
          CHANNELS 3 Zrotation Xrotation Yrotation
          JOINT RightForeArm
          {
            OFFSET -32.8971 0.099144 -1.42434
            CHANNELS 3 Zrotation Xrotation Yrotation
            JOINT RightHand
            {
              OFFSET -27.4921 0.085362 1.02216
              CHANNELS 3 Zrotation Xrotation Yrotation
              End Site
              {
                OFFSET -16.6312 -0.6 1.50291
              }
            }
          }
        }
      }
    }
  }
  JOINT LeftUpLeg
  {
    OFFSET 8.9458 -8.66707 0.101652
    CHANNELS 3 Zrotation Xrotation Yrotation
    JOINT LeftLeg
    {
      OFFSET 0 -44.4227 1.3727
      CHANNELS 3 Zrotation Xrotation Yrotation
      JOINT LeftFoot
      {
        OFFSET -0.253549 -42.0924 -1.46059
        CHANNELS 3 Zrotation Xrotation Yrotation
        JOINT LeftToes
        {
          OFFSET -0.04 -4.41509 8.4991
          CHANNELS 3 Zrotation Xrotation Yrotation
          End Site
          {
            OFFSET 0.08 -0.047448 9.77979
          }
        }
      }
    }
  }
}
MOTION
Frames:	14
Frame Time:	0.0166667
-60.2084 93.8191 81.0186 -6.69012 4.45193 -145.872 -25.4413 -1.56526 4.66622 -6.27673 38.4543 28.9734 11.7731 0.0764607 -0.0468986 0.0462048 0.000533403 0.662642 5.65518 20.8673 15.8287 0.0127348 -0.0121475 -0.0131505 -31.2328 16.8093 24.3717 -4.77083e-015 -1.59028e-015 3.18055e-015 147.9 -72.413 160.821 -84.4114 57.3058 -55.6343 6.2518 19.2949 2.76872 30.1455 -3.07095 5.54229 57.8198 -23.4825 65.2762 49.8354 54.8916 78.7439 -6.82751 24.7844 -0.135856 22.5699 -25.0242 11.7301 -6.37298 30.081 14.6306 30.58 -2.45273 1.76537 -1.18445e-009 1.5602e-007 -4.87131e-009 
-57.5153 93.4768 80.9552 -6.17506 3.83798 -145.363 -25.2348 2.23378 9.53294 -0.461102 31.9125 18.9591 10.9566 -0.939545 0.0759957 0.0462048 0.000533403 0.662642 5.37803 20.6133 16.4734 0.0127348 -0.0121475 -0.0131505 -31.3615 15.2472 24.1262 -3.18055e-015 -1.59028e-015 3.18055e-015 148.674 -72.2424 162.601 -85.477 57.374 -55.1409 4.79771 20.3505 -3.46279 29.3485 -2.93332 4.58511 60.1785 -22.4543 67.0781 50.1654 55.0918 77.7127 -6.77454 24.3719 -0.440045 22.9941 -25.7 11.2803 -5.4401 28.8208 10.3097 33.4101 -2.06921 1.80659 -1.18446e-009 1.5602e-007 -4.87132e-009 
-54.9395 93.1586 80.7662 -5.72021 3.37018 -144.812 -25.0298 5.43235 13.798 4.77946 27.2669 9.24413 7.25557 -1.93763 0.181011 0.0462048 0.000533403 0.662642 5.26611 20.3523 16.7666 0.0127348 -0.0121475 -0.0131505 -31.4871 13.8978 24.1987 -1.59028e-015 -4.77083e-015 -3.18055e-015 149.135 -72.0521 164.239 -86.8328 57.4418 -54.2722 6.29607 18.7574 0.667968 28.7465 -2.58215 3.68721 62.1724 -21.4678 68.6843 50.4842 55.2967 76.7155 -6.88869 24.0655 -0.631777 22.9825 -26.2117 10.6998 -3.56982 27.8802 3.99597 35.1675 -1.82596 1.79188 -1.18446e-009 1.5602e-007 -4.87131e-009 
-52.5285 92.7924 80.5081 -5.34193 3.05084 -144.21 -25.2105 8.06096 17.6427 9.77937 23.1348 0.565871 6.66472 -2.53454 0.245832 0.0462048 0.000533403 0.662642 5.30269 20.0958 16.7149 0.0127348 -0.0121475 -0.0131505 -31.6282 12.8188 24.5933 1.59028e-015 3.18055e-015 -3.18055e-015 149.335 -71.8628 165.74 -88.5392 57.5859 -53.1261 5.32604 19.3145 -3.18278 28.1595 -2.0913 2.8379 64.0137 -20.4978 70.062 50.7692 55.4572 75.7628 -7.03328 23.7106 -0.787938 22.6895 -26.5756 9.99875 -1.96055 26.6148 -1.39501 36.7972 -1.66572 1.74462 -1.18447e-009 1.5602e-007 -4.87131e-009 
-50.2797 92.3939 80.2255 -5.02835 2.88363 -143.567 -24.4782 9.44773 20.287 13.682 20.6206 -6.24189 3.60954 -3.16445 0.264818 0.0462048 0.000533403 0.662642 5.50562 19.8256 16.3556 0.0127348 -0.0121475 -0.0131505 -31.7895 12.0761 25.2881 -1.76556e-031 -1.59028e-015 -6.36111e-015 149.684 -71.6918 167.331 -90.3346 57.6144 -51.7271 6.23367 18.5744 -0.914132 27.7669 -1.61093 2.18754 65.5 -19.6043 71.0058 50.9834 55.5621 74.8961 -7.27236 23.4206 -0.702128 22.264 -26.7852 9.25709 -0.483623 25.2861 -5.92935 38.0835 -1.54919 1.70319 -1.18447e-009 1.5602e-007 -4.87132e-009 
-48.1579 92.125 79.9681 -4.76615 2.85103 -142.9 -23.3243 10.0752 21.8035 16.1571 18.9842 -10.5875 3.37525 -3.31626 0.303813 0.0462048 0.000533403 0.662642 5.82547 19.5358 15.7527 0.0127348 -0.0121475 -0.0131505 -31.8881 11.6145 26.21 -1.59028e-015 0 3.18055e-015 150.284 -71.6276 169.073 -92.05 57.6026 -50.3066 5.4595 18.9677 -3.15707 27.3681 -1.00431 1.68712 66.889 -18.7979 71.6928 51.0894 55.6232 74.1176 -7.24375 23.0282 -0.873078 21.795 -26.7747 8.52453 0.806922 23.935 -9.54913 39.059 -1.43776 1.64397 -1.18446e-009 1.5602e-007 -4.87131e-009 
-46.3175 91.9539 79.669 -4.54044 2.93325 -142.243 -21.4763 10.1109 22.1556 17.5616 20.0648 -12.9367 0.472574 -2.93863 0.0614664 0.0462048 0.000533403 0.662642 6.21209 19.2187 14.9894 0.0127348 -0.0121475 -0.0131505 -31.9212 11.4415 27.3023 3.18055e-015 -4.77083e-015 -1.27222e-014 151.271 -71.6848 171.047 -93.4372 57.4896 -48.973 6.02252 18.7226 -1.73776 27.0037 -0.3392 1.40622 68.0802 -18.1506 72.0887 51.0822 55.6454 73.4057 -7.12667 22.8173 -0.950344 21.3943 -26.6541 7.92504 1.27076 23.7345 -10.6358 40.4814 -1.23548 1.59914 -1.18446e-009 1.5602e-007 -4.87131e-009 
-44.671 91.9026 79.4372 -4.33835 3.10274 -141.635 -19.5997 9.44006 21.6161 17.1989 20.2662 -13.3948 3.20095 -3.06446 0.238942 0.0462048 0.000533403 0.662642 6.61821 18.8697 14.1371 0.0127348 -0.0121475 -0.0131505 -31.9114 11.5576 28.5271 -1.76556e-031 3.18055e-015 3.18055e-015 152.403 -71.8354 173 -94.411 57.3546 -47.937 5.54107 19.3018 -3.02978 26.6033 0.344562 1.2381 69.1161 -17.5554 72.3314 50.9481 55.6182 72.7619 -6.78597 22.6592 -1.04635 21.1632 -26.6247 7.53856 1.18898 24.0986 -9.64823 41.9935 -0.925254 1.53115 -1.18446e-009 1.5602e-007 -4.87131e-009 
-43.2589 92.0143 79.2347 -4.13759 3.33828 -141.103 -17.4332 8.39748 20.0948 15.7491 21.1689 -12.2734 3.25557 -3.28915 0.287204 0.0462048 0.000533403 0.662642 7.02247 18.4763 13.2599 0.0127348 -0.0121475 -0.0131505 -31.9618 13.4766 30.185 -1.59028e-015 0 -0 153.526 -72.0039 174.781 -94.999 57.1754 -47.1559 5.94678 19.376 -2.10942 26.0933 1.03254 1.21576 70.0262 -17.045 72.4424 50.7007 55.5547 72.2061 -6.46665 22.4604 -1.03039 21.1349 -26.7696 7.41026 0.662809 24.927 -7.0715 43.4828 -0.619141 1.47636 -1.18446e-009 1.5602e-007 -4.87131e-009 
-42.1509 92.2275 78.9859 -3.95022 3.62078 -140.644 -15.7119 7.65635 18.7135 14.3815 24.0338 -10.3146 4.17474 -2.98527 0.268846 0.0462048 0.000533403 0.662642 7.40366 18.0454 12.3771 0.0127348 -0.0121475 -0.0131505 -32.0977 15.4053 31.8795 -1.59028e-015 1.59028e-015 -3.18055e-015 154.37 -72.1457 176.146 -95.3189 57.0241 -46.6589 5.65179 19.9442 -2.91482 25.4847 1.64793 1.21846 70.8019 -16.509 72.465 50.4228 55.4675 71.711 -6.10748 22.3206 -0.934228 21.3196 -27.1417 7.54672 -0.33981 26.3009 -3.29564 44.9431 -0.455965 1.51725 -1.18446e-009 1.5602e-007 -4.87132e-009 
-41.2035 92.5622 78.7794 -3.74979 3.90234 -140.243 -14.792 7.14932 17.5574 12.4902 24.3367 -8.06878 11.5619 -2.97111 0.585371 0.0462048 0.000533403 0.662642 7.75469 17.5395 11.5074 0.0127348 -0.0121475 -0.0131505 -32.3305 17.3116 33.5786 8.82781e-032 -1.59028e-015 3.18055e-015 154.857 -72.1966 177.029 -95.5057 56.8714 -46.2989 5.90765 20.066 -2.28158 24.7597 2.28253 1.37948 71.4702 -16.1584 72.493 50.1731 55.3486 71.2483 -5.79212 22.1702 -0.885602 21.6476 -27.5292 7.87363 -0.771695 26.7149 -0.498936 45.292 -0.390282 1.49249 -1.18446e-009 1.5602e-007 -4.87131e-009 
-40.4727 93.0427 78.5544 -3.53717 4.16298 -139.881 -13.5326 6.62866 16.1803 11.0282 25.4702 -6.25056 9.51329 -2.75626 0.458873 0.0462048 0.000533403 0.662642 8.05438 16.9638 10.6608 0.0127348 -0.0121475 -0.0131505 -32.6499 19.14 35.2529 -1.59028e-015 3.18055e-015 1.90833e-014 160.635 -69.9893 -176.439 -95.6203 56.7412 -46.0436 5.71097 20.5614 -2.67746 23.9427 2.93849 1.63069 72.0354 -15.9446 72.5975 49.9763 55.1967 70.8061 -5.49259 22.0406 -0.755453 21.895 -27.6154 8.27407 -0.807408 26.3419 1.4033 44.8103 -0.418868 1.47312 -1.18446e-009 1.5602e-007 -4.87131e-009 
-39.8671 93.4724 78.3219 -3.30865 4.38788 -139.545 -12.8532 6.34394 14.9356 9.59327 26.2813 -4.44545 12.6134 -2.41746 0.542681 0.0462048 0.000533403 0.662642 8.28662 16.3111 9.84977 0.0127348 -0.0121475 -0.0131505 -33.0406 20.8788 36.8779 1.59028e-015 1.59028e-015 6.36111e-015 158.524 -70.1524 -178.554 -95.7344 56.6327 -45.8133 5.8812 20.5809 -2.25305 23.2013 3.54102 2.0163 72.3287 -15.9252 72.7075 49.8303 55.0022 70.3869 -5.26773 21.9671 -0.691526 22.0734 -27.6116 8.71631 -0.635861 25.8646 2.58643 43.6197 -0.648574 1.53056 -1.18446e-009 1.5602e-007 -4.87131e-009 
-39.3641 93.9373 78.0797 -3.06129 4.56133 -139.234 -12.2407 5.99901 13.6178 8.412 27.2196 -2.77137 13.4915 -2.07704 0.485971 0.0462048 0.000533403 0.662642 8.43958 15.599 9.08985 0.0127348 -0.0121475 -0.0131505 -33.4794 22.4697 38.4218 1.76556e-031 3.18055e-015 -3.18055e-015 156.378 -70.3031 179.242 -95.8935 56.5291 -45.5602 5.79311 20.8097 -2.33741 22.19 4.13786 2.39839 72.7802 -15.9438 72.948 49.7643 54.7598 69.9491 -5.13998 21.7167 -0.538185 22.1047 -27.3707 9.14791 -0.352452 25.1768 3.17702 41.8405 -0.9611 1.59453 -1.18447e-009 1.5602e-007 -4.87132e-009 
